# xmcd
#
# Track frame offsets:
#	150
#	13836
#	26424
#	42462
#	54509
#	66941
#	85034
#	101036
#	113572
#	127747
#	140804
#	154646
#
# Disc length: 2236
#
# Revision: 3
# Processed by: cddbd v1.5.1PL0 Copyright (c) Steve Scherf et al.
# Submitted via: Audio-CD-Archiv 2.10.438
# Normalized: r1:DSETVAR1,TDELIM( - ),TSWAP
#
DISCID=9908ba0c
DTITLE=Various Artist - The Country And The West CD1
DYEAR=1900
DGENRE=country
TTITLE0=Lynn Anderson - Rose garden
TTITLE1=Jack And Misty - Tennessee Birdwalk
TTITLE2=Johnny Russel - Luckenbach Texas
TTITLE3=Johnny Paycheck - Take This Job And Shove It
TTITLE4=LaCosta Tucker - He Took Me For A Ride
TTITLE5=david Houston - Nashville
TTITLE6=Red Simpson - I'm A Truck
TTITLE7=Johnny Russel - Rednacks, White Socks, Blue Ribbon Beer
TTITLE8=Bob luman - Lonely Woman Make Good Lovers
TTITLE9=Kenny Price - Sheriff Of Boone County
TTITLE10=Anthony Armstrong Jones - Take A Letter Maria
TTITLE11=Faron Young - It's Four In The Morning
EXTD=
EXTT0=
EXTT1=
EXTT2=
EXTT3=
EXTT4=
EXTT5=
EXTT6=
EXTT7=
EXTT8=
EXTT9=
EXTT10=
EXTT11=
PLAYORDER=
